<svg width="28" height="27" viewBox="0 0 28 27" fill="none" xmlns="http://www.w3.org/2000/svg">
<path d="M26.4292 8.74196H23.5998L19.6616 1.03776C19.4492 0.622065 18.9516 0.463476 18.5501 0.683559C18.1488 0.903642 17.9956 1.4191 18.2081 1.83479L21.7389 8.74196H6.25634L9.7871 1.83479C9.9996 1.4191 9.84648 0.903642 9.44512 0.683559C9.04387 0.463533 8.54608 0.622065 8.33358 1.03776L4.39538 8.74196H1.57084C0.704694 8.74196 0 9.47183 0 10.3689V12.2609C0 13.1202 0.646692 13.8256 1.46251 13.8835L4.22131 25.7631C4.31018 26.1458 4.64076 26.4156 5.02085 26.4156H22.9737C23.3536 26.4156 23.6841 26.146 23.7731 25.7635L26.5384 13.8834C27.3538 13.825 28 13.1199 28 12.2609V10.3689C28 9.47183 27.2954 8.74196 26.4292 8.74196ZM1.64469 10.4454H26.3553V12.1844H1.64469V10.4454ZM23.7847 18.4455H20.1843L20.7337 13.8878H24.8456L23.7847 18.4455ZM14.8235 24.7122V20.149H18.3214L17.7714 24.7122H14.8235ZM10.2307 24.7122L9.68014 20.149H13.1788V24.7122H10.2307ZM3.15512 13.8878H7.26728L7.8172 18.4455H4.21358L3.15512 13.8878ZM8.92468 13.8878H13.1788V18.4455H9.47461L8.92468 13.8878ZM14.8235 18.4455V13.8878H19.0762L18.5268 18.4455H14.8235ZM4.60913 20.149H8.02268L8.57327 24.7122H5.66886L4.60913 20.149ZM22.326 24.7122H19.4288L19.9789 20.149H23.3882L22.326 24.7122Z" fill="#242323"/>
</svg>
